<?xml version="1.0" encoding="iso-8859-1"?>
<!-- Generator: Adobe Illustrator 24.0.1, SVG Export Plug-In . SVG Version: 6.00 Build 0)  -->
<svg version="1.1" id="Layer_1" xmlns="http://www.w3.org/2000/svg" xmlns:xlink="http://www.w3.org/1999/xlink" x="0px" y="0px"
	 viewBox="0 0 539.135 521.012" style="enable-background:new 0 0 539.135 521.012;" xml:space="preserve">
<g>
	<path style="fill:#6C007C;" d="M379.52,254.239c37.836,27.531,93.389,45.422,77.833,91.304
		c-15.725,46.378,56.121,60.241,11.484,54.522s-16.733-35.263-57.864-42.494C349.74,346.805,379.52,254.239,379.52,254.239z"/>
	<path style="fill:#6C007C;" d="M368.646,355.35c0,0,12.396,61.292,13.263,89.111c0.867,27.82,24.527,13.205,40.189,31.791
		c15.662,18.586,0,20.256,0,20.256s-25.425-25.14-63.762-34.087c-38.337-8.947-52.759-2.416-77.114-30.305
		c-24.355-27.889-15.686-2.442,10.251-21.657c25.937-19.215,45.254-106.839,45.254-106.839L368.646,355.35z"/>
	<path style="fill:#C3005C;" d="M266.664,199.164c0,0-25.577-116.429,22.71-169.083s99.765,192.028,90.146,224.158
		c-9.619,32.129,3.981,86.134-21.827,70.29C331.885,308.684,266.664,199.164,266.664,199.164z"/>
	<path style="fill:#C3005C;" d="M266.664,217.622c-30.722,1.872-66.324,13.025-82.03,26.608
		C147.997,275.913,57.791,338.69,58.41,401.715c0.569,57.918,137.995,52.775,196.889,29.136s104.647-60.875,95.707-73.281
		c-8.94-12.407,11.708-18.441-14.279-53.95S300.24,215.576,266.664,217.622z"/>
	<path style="fill:#6C007C;" d="M356.735,148.122c2.392,14.152,4.234,28.428,7.374,42.413c2.016,8.98,7.076,17.323,8.721,26.327
		c1.937,10.596,1.476,21.615,2.518,32.405c0.172,1.775,2.721,3.321,4.172,4.972c9.26-10.157,12.743,1.597,17.779,5.133
		c19.232,13.504,38.337,27.225,56.873,41.658c5.045,3.928,4.616,16.945,5.73,26.346c-13.538-22.883-26.833-33.602-42.545-45.606
		c2.308,14.232,24.976,15.264,16.216,34.326l0.194-0.096c-3.945-0.593-11.95-12.057-9.879,3.692
		c0.085,0.643-1.112,1.985-1.878,2.132c-12.772,2.454-25.57,4.768-41.063,7.608c5.606,8.808,13.25,20.917,21.002,32.957
		c4.361,6.773,9.201,13.261,13.14,20.263c0.929,1.651-0.301,7.723-1.485,14.055c-1.271,1.158-2.542,2.316-3.813,3.474
		c-13.715-14.943-27.429-29.887-41.144-44.83c12.26,29.072,20.421,57.969,13.263,89.111c-0.951,4.137-5.816,7.376-8.352,10.412
		c-1.638-7.696-3.232-15.181-4.825-22.667c-1.34,0.187-2.679,0.374-4.018,0.56c0.028,5.965,0.123,11.932-0.003,17.895
		c-0.016,0.735-1.588,2.168-1.798,2.058c-3.333-1.752-6.662-3.553-9.785-5.65c-3.019-2.027-5.802-4.407-8.689-6.632
		c1.512,3.007,2.744,6.201,4.596,8.981c3.582,5.38,7.514,10.527,9.302,13.003c-15.898-0.773-32.641-0.063-48.772-2.868
		c-12.19-2.121-27.036-1.414-33.612-16.92c-4.937-11.641-13.714-9.79-24.309-6.556c-50.901,15.536-102.987,20.042-154.515,5.731
		c-14.368-3.991-37.638-4.962-39.157-27.561c-1.114-16.58-2.485-37.19,5.809-49.64c31.808-47.742,68.243-92.499,117.608-123.624
		c19.423-12.246,40.493-24.067,65.351-21.135c3.846,0.454,7.361,3.718,11.028,5.682c-3.782,1.063-7.765,3.493-11.316,2.974
		c-28.993-4.24-53.43,10.106-72.426,26.532c-35.861,31.008-67.185,67.281-100.111,101.637c-2.537,2.647-2.193,7.855-4.325,11.133
		c-4.538,6.978,6.233,18.71-7.448,23.376c-1.074,0.366-0.55,12.994,2.76,17.025c6.305,7.678,15.16,13.263,22.957,19.716
		c1.082-3.334,2.29-6.634,3.21-10.013c0.9-3.304,1.507-6.688,2.242-10.037c2.932,2.302,6.495,4.136,8.639,7.024
		c2.781,3.747,3.611,9.146,6.78,12.349c3.848,3.889,9.259,6.23,13.994,9.24c0.692-5.042,0.944-10.2,2.238-15.083
		c0.805-3.038,3.185-5.658,4.859-8.466c3.131,2.23,7.63,3.784,9.131,6.821c4.067,8.227,1.516,23.062,18.099,17.531
		c14.382-4.797,7.076-15.82,5.848-24.807c-1.748-12.791-3.754-25.546-6.082-41.222c12.303,16.732,22.761,30.955,33.218,45.178
		c-0.863,0.752-1.726,1.504-2.589,2.257c-3.998-2.548-7.995-5.095-12.487-7.957c0.456,10.672,18.022,26.23,26.54,23.212
		c3.743-1.326,9.085-9.095,8.087-11.002c-5.05-9.657-11.924-18.363-18.214-27.364c-0.973-1.392-3.276-2.661-3.19-3.858
		c0.648-8.949,1.743-17.866,2.976-29.39c9.253,16.188,17.356,31.851,27.02,46.482c3.475,5.26,10.558,8.315,16.469,11.496
		c0.567,0.305,5.387-5.353,6.639-8.818c1.209-3.344,0.357-7.434,0.409-11.2c19.824-6.748,5.77,19.8-1.746,33.029
		c12.336-5.572,21.133-9.546,29.931-13.52c-4.348-5.184-8.731-10.339-13.013-15.577c-0.877-1.073-1.289-3.473-2.055-3.535
		c-4.327-0.349-8.696-0.171-13.05-0.174c-13.797-21.465-27.75-42.834-41.174-64.53c-1.507-2.435-0.019-6.723,0.08-10.152
		c2.344,2.159,5.18,3.976,6.951,6.532c11.021,15.895,20.768,32.811,33.028,47.662c8.185,9.915,19.761,17.065,30.125,25.054
		c0.593,0.457,5.946-3.143,5.729-4.076c-2.445-10.533-5.494-20.928-8.51-31.323c-0.726-2.502-1.927-4.867-2.91-7.295
		c1.716-0.716,3.432-1.431,5.147-2.147c6.984,16.509,13.968,33.017,21.244,50.216c12.794-7.305,29.211-15.971,44.889-25.814
		c18.684-11.73,20.718-11.603,31.105,7.414c0.728,1.333,2.229,2.243,7.383,7.238c-4.069-13.229-5.891-21.732-9.26-29.57
		c-6.834-15.893-14.127-31.621-22.038-47.001c-2.714-5.275-8.291-9.007-11.666-14.042c-1.673-2.496-1.321-6.349-1.886-9.588
		c2.255,1.493,4.661,2.804,6.728,4.524c2.607,2.169,4.937,4.669,10.964,4.684c-6.637-9.788-13.274-19.576-20.327-29.976
		c0.714,4.125,1.406,8.124,2.098,12.122c-0.665,0.256-1.33,0.512-1.995,0.769c-6.458-11.589-12.562-23.398-19.589-34.63
		c-2.105-3.364-8.106-4.416-9.905-7.809c-1.674-3.158-0.128-8.023,0.001-12.136c0.001-0.001-0.273,0.057-0.273,0.057
		c6.581,4.318,14.921,7.325,19.342,13.254c7.027,9.424,20.955,10.836,24.581,25.578c1.375,5.593,18.39,7.336,28.276,10.835
		c0.673-2.872,2.89-7.137,1.764-8.385c-6.217-6.891-13.004-13.335-20.094-19.344c-4.295-3.64-9.493-6.216-13.299-11.78
		c6.49,0.779,12.98,1.557,17.829,2.139c-10.358-8.482-22.389-18.16-34.203-28.094c-4.543-3.821-8.776-8.063-12.74-12.482
		c-0.931-1.039-0.198-3.571-0.23-5.416c1.509,0.53,3.244,0.744,4.49,1.639c9.48,6.807,18.793,13.848,28.345,20.55
		c1.65,1.159,4.182,1.062,6.306,1.545c-0.738-2.102-0.858-4.893-2.312-6.195c-11.336-10.153-23.096-19.838-34.319-30.111
		c-2.653-2.428-3.771-6.535-5.594-9.87c3.98,1.393,8.884,1.753,11.786,4.351c15.139,13.549,29.77,27.667,44.577,41.587
		c2.09-0.453,4.179-0.905,6.269-1.358c-4.001-10.986-7.968-21.984-12.136-32.906c-0.158-0.414-2.869,0.406-3.346-0.187
		c-3.683-4.59-17.403-3.708-7.952-15.981c2.282-2.964-1.381-10.702-2.785-16.122c-0.24-0.926-3.118-1.971-4.345-1.585
		c-0.984,0.31-1.443,2.665-1.899,4.184c-0.629,2.094-1.036,4.255-1.538,6.388c-1.976-1.271-4.155-2.313-5.896-3.851
		c-9.219-8.142-18.627-16.11-27.281-24.823c-2.38-2.396-2.393-7.144-3.493-10.813c3.043,1.198,6.223,2.135,9.102,3.646
		c7.261,3.81,14.302,8.051,21.663,11.645c1.013,0.495,3.444-1.582,4.981-2.774c0.302-0.234-0.488-1.879-0.775-2.873
		c-1.624,0.491-3.595,1.826-4.813,1.326c-5.214-2.14-10.206-4.821-15.278-7.305c1.788-2.246,5.29-4.691,5.057-6.703
		c-0.869-7.518-2.612-14.999-4.787-22.266c-0.753-2.516-3.72-4.37-4.24-8.312c2.901,1.352,5.802,2.703,12.337,5.748
		c-4.43-12.677-8.089-22.532-11.213-32.555c-0.701-2.248,0.473-5.08,0.784-7.643c2.158,1.378,5.493,2.273,6.288,4.211
		c5.969,14.544,11.437,29.294,17.971,46.357c-3.698-2.606-5.367-3.781-10.694-7.535c11.294,21.812,20.678,39.937,30.431,58.771
		c0.84-5.428,1.59-10.269,2.34-15.11C356.959,148.076,356.735,148.122,356.735,148.122z M370.811,316.273
		c1.132-3.038,3.494-6.6,3.454-10.135c-0.033-2.916-2.26-6.772-4.716-8.41c-2.218-1.478-6.063-0.514-9.191-0.627
		c1.883,2.82,3.984,5.522,5.592,8.49C367.758,308.927,369.12,312.503,370.811,316.273z M320,453.474
		c0.962-0.843,1.923-1.685,2.885-2.527c-5.78-7.314-11.559-14.628-17.339-21.942c-1.087,0.885-2.173,1.769-3.26,2.654
		C308.191,438.931,314.095,446.203,320,453.474z M232.58,434.097c-12.861-10.636-13.161-10.56-17.006,2.618
		C220.704,435.925,225.601,435.171,232.58,434.097z M291.649,428.157c-1.096-2.098-2.529-5.302-2.762-5.217
		c-3.51,1.281-6.861,2.995-10.25,4.607c0.883,1.601,2.154,4.682,2.586,4.568C284.553,431.241,287.721,429.747,291.649,428.157z
		 M183.867,439.496c0.198-0.914,0.396-1.828,0.594-2.742c-3.311-0.37-6.62-0.802-9.941-0.949c-0.195-0.008-0.492,2.298-0.742,3.526
		C177.141,439.387,180.504,439.442,183.867,439.496z M371.733,420.394c1.06-0.031,2.119-0.062,3.179-0.092
		c-0.086-2.951-0.131-5.906-0.422-8.837c-0.011-0.107-2.437,0.027-3.738,0.049C371.079,414.473,371.406,417.434,371.733,420.394z"/>
	<path style="fill:#6C007C;" d="M309.752,358.664c4.093,5.24,6.095,7.644,7.924,10.173c5.464,7.556,9.973,16.028-0.266,22.406
		c-9.461,5.894-19.954,6.203-26.547-5.09c-9.851-16.875-19.413-33.947-28.229-51.376c-2.054-4.061-0.61-9.892-0.775-14.908
		c2.531,3.262,5.479,6.284,7.52,9.828c9.281,16.111,17.992,32.561,27.645,48.44c2.415,3.973,7.566,6.283,11.46,9.357
		c1.019-4.681,2.521-9.323,2.904-14.055C311.691,369.696,310.621,365.841,309.752,358.664z"/>
	<path style="fill:#6C007C;" d="M289.374,30.081c-8.698,21.075-20.608,41.089-24.821,62.609c-4.276,21.839-0.865,45.166-1.01,67.84
		c-0.047,7.306-0.692,14.609-1.064,21.913c-2.19-6.197-5.505-12.239-6.385-18.616c-4.824-34.961-6.065-69.918,10.738-102.393
		C272.811,49.878,282.093,40.032,289.374,30.081z"/>
	<path style="fill:#6C007C;" d="M114.759,348.831c-10.106-3.045-16.122,1.899-14.033,17.271c-4.787-3.407-7.976-5.678-11.952-8.508
		c-0.007,3.202-0.012,5.792-0.023,10.453c-2.901-2.994-6.231-4.929-6.091-6.567c0.434-5.069,0.913-13.341,3.672-14.404
		c8.278-3.19,19.002-2.118,15.265-16.339c-0.216-0.821,2.755-2.481,4.243-3.751c0.879,1.65,1.933,3.232,2.606,4.962
		C110.6,337.473,112.612,343.054,114.759,348.831z"/>
	<path style="fill:#6C007C;" d="M298.052,151.195c-5.357,0.66-10.128,2.488-11.246,1.184c-7.24-8.445-18.335-15.56-13.052-29.652
		c0.481-1.283,0.238-2.936,0.009-4.366c-0.561-3.512-1.31-6.993-1.983-10.487c1.526,0.242,3.813-0.062,4.447,0.82
		c2.763,3.85,7.453,8.282,7.08,12.075c-1.521,15.478-2.019,15.06,11.143,18.398C296.231,139.619,296.548,145.831,298.052,151.195z"
		/>
	<path style="fill:#6C007C;" d="M302.431,156.756c11.609,8.686,20.718,15.321,29.558,22.298c1.456,1.149,1.723,3.805,2.54,5.764
		c-1.932,0.278-4.393,1.462-5.713,0.691c-11.748-6.862-23.412-13.894-34.736-21.425c-1.264-0.84-0.255-5.098-0.3-7.771
		C297.602,156.508,301.425,156.704,302.431,156.756z"/>
	<path style="fill:#6C007C;" d="M254.864,196.208c-8.122-19.369-19.707-45.348-30.22-69.28
		c-5.542-12.616-10.786-24.662-15.067-34.873c1.097-0.482,2.194-0.965,3.291-1.447c4.432,10.055,9.631,22.027,15.07,34.599
		c10.382,23.998,21.638,50.18,30.099,69.374C256.45,195.395,256.45,195.395,254.864,196.208z"/>
	<path style="fill:#6C007C;" d="M136.037,318.668c-4.554-3.356-10.241-6.162-9.913-7.545c1.439-6.076,3.62-12.585,7.553-17.223
		c2.189-2.582,8.333-1.949,12.732-2.283c0.402-0.031,2.071,4.574,1.453,5.127c-4.167,3.727-9.191,6.557-13.031,10.549
		C133.641,308.53,135.266,312.475,136.037,318.668z"/>
	<path style="fill:#6C007C;" d="M292.449,233.029c-4.03,12.581-10.972,5.812-15.445,1.318c-4.503-4.524-6.977-11.067-10.34-16.726
		c5.477,3.639,10.882,7.394,16.461,10.87c2.973,1.852,6.247,3.222,9.384,4.809L292.449,233.029z"/>
	<path style="fill:#6C007C;" d="M297.025,197.205c-1.326,0.238-3.364,0.989-3.618,0.594c-4.94-7.687-9.728-15.475-14.322-23.373
		c-0.299-0.515,1.036-2.302,1.969-3.053c0.371-0.299,2.132,0.348,2.552,1.012c4.421,6.997,8.734,14.063,12.967,21.175
		C297.047,194.356,296.844,195.556,297.025,197.205z"/>
	<path style="fill:#6C007C;" d="M292.51,233.301c2.798-2.391,5.439-6.462,8.434-6.741c3.596-0.335,7.555,2.429,11.198,4.183
		c0.611,0.294,0.414,2.268,0.59,3.466c-3.237,0.035-6.508-0.196-9.698,0.208c-1.843,0.233-3.557,1.488-5.33,2.285
		c-0.001,0.001,0.273-0.057,0.272-0.056c-1.842-1.204-3.683-2.409-5.525-3.614C292.449,233.029,292.51,233.301,292.51,233.301z"/>
	<path style="fill:#6C007C;" d="M235.189,190.499c4.931,6.555,9.863,13.109,14.794,19.664c1.379-1.083-6.507-15.749-11.829-21.998
		L210.872,168.6c-3.56-3.413-27.154-29.744-30.715-33.158c-1.04,1.156-2.08,2.312-3.12,3.468
		c3.705,3.112,27.418,29.173,31.243,32.129L235.189,190.499z"/>
	<path style="fill:#6C007C;" d="M180.223,291.918c-4.362-1.683-10.977-2.483-11.594-4.848c-1.184-4.539,1.035-9.966,2.157-16.994
		C174.396,278.429,176.834,284.073,180.223,291.918z"/>
	<path style="fill:#6C007C;" d="M340.192,365.573c-2.237-7.751-4.473-15.503-6.71-23.255c1.195-0.379,2.39-0.758,3.585-1.136
		c2.448,7.687,4.895,15.374,7.343,23.061C343.004,364.687,341.598,365.13,340.192,365.573z"/>
	<path style="fill:#6C007C;" d="M74.35,397.017c1.157-4.451,2.313-8.903,3.47-13.355c1.513,2.082,4.408,4.312,4.205,6.212
		c-0.284,2.66-2.877,5.073-4.481,7.591C76.479,397.316,75.414,397.166,74.35,397.017z"/>
	<path style="fill:#6C007C;" d="M236.176,331.492c3.605,6.259,7.211,12.519,10.816,18.778c-1.297,0.726-2.595,1.451-3.892,2.177
		c-3.492-6.309-6.985-12.617-10.477-18.926C233.808,332.844,234.992,332.168,236.176,331.492z"/>
	<path style="fill:#6C007C;" d="M199.97,269.032c4.23-3.902,8.461-7.803,12.691-11.705c1.052,1.043,2.104,2.086,3.157,3.129
		c-4.072,4.144-8.143,8.289-12.215,12.433C202.391,271.603,201.181,270.318,199.97,269.032z"/>
	<path style="fill:#6C007C;" d="M433.573,316.095c6.044,0.291,12.088,0.582,18.132,0.873c-0.547,2.135-1.094,4.269-1.641,6.404
		c-5.427-2.46-10.853-4.921-16.288-7.377C433.767,315.999,433.573,316.095,433.573,316.095z"/>
	<path style="fill:#6C007C;" d="M285.14,288.244c-4.216-1.176-8.44-2.329-12.589-3.706c-0.076-0.025,1.003-3.986,1.085-3.969
		c4.287,0.916,8.524,2.063,12.766,3.186C285.981,285.252,285.561,286.748,285.14,288.244z"/>
	<path style="fill:#6C007C;" d="M292.442,118.69c0.426,3.959,0.972,7.915,1.07,11.883c0.009,0.346-2.92,0.766-4.485,1.152
		c-0.443-4.089-0.886-8.179-1.33-12.268C289.279,119.201,290.86,118.945,292.442,118.69z"/>
	<path style="fill:#6C007C;" d="M194.114,271.968c-1.224,3.956-2.448,7.912-3.673,11.868c-1.008-0.664-2.956-1.481-2.876-1.968
		c0.609-3.74,1.612-7.416,2.493-11.112C191.41,271.16,192.762,271.564,194.114,271.968z"/>
	<path style="fill:#6C007C;" d="M280.477,154.51c1.161,3.684,2.321,7.368,3.482,11.052c-1.059,0.358-2.119,0.715-3.178,1.073
		c-1.267-3.625-2.534-7.25-3.802-10.875C278.145,155.343,279.311,154.927,280.477,154.51z"/>
	<path style="fill:#6C007C;" d="M356.959,148.076c-2.406-4.93-4.812-9.859-7.219-14.788c1.941-0.583,3.881-1.166,5.822-1.749
		c0.391,5.527,0.782,11.055,1.173,16.583C356.735,148.122,356.959,148.076,356.959,148.076z"/>
	<path style="fill:#6C007C;" d="M254.35,270.474c-1.801-2.159-3.602-4.317-5.403-6.475c0.796-0.664,1.593-1.329,2.389-1.993
		c1.797,2.162,3.594,4.323,5.391,6.485C255.935,269.152,255.142,269.813,254.35,270.474z"/>
</g>
<polygon style="fill:#FFEDCA;" points="338.234,409.585 200.874,262.957 303.027,173.918 436.517,316.126 "/>
<path style="fill:#FF96DD;" d="M325.595,366.027l-82.835-88.425c-6.293-6.718-5.757-17.316,1.182-23.364l50.957-43.16
	c6.591-5.745,16.545-5.246,22.529,1.128l80.801,86.078c6.115,6.515,5.825,16.744-0.65,22.902l-48.924,45.507
	C342.117,372.912,331.764,372.613,325.595,366.027z"/>
<path style="fill:none;stroke:#FFFFFF;stroke-width:16;stroke-linecap:round;stroke-miterlimit:10;" d="M266.834,266.24
	c0,0,32.934-53.234,52.388-25.541c19.454,27.693-38.185,35.044-16.936,63.45c21.249,28.406,40.986-29.316,61.318-13.416
	s-23.63,48.34-23.63,48.34"/>
</svg>
