<svg id="Layer_1" data-name="Layer 1" xmlns="http://www.w3.org/2000/svg" viewBox="0 0 193.5 186.99"><defs><style>.cls-1{fill:#231f20;}.cls-2{fill:#698e49;}.cls-3{fill:#ffedca;}.cls-4{fill:none;stroke:#fff;stroke-miterlimit:10;stroke-width:5px;}</style></defs><path class="cls-1" d="M120.94,87.84c11.66,8.48,28.78,14,24,28.13-4.84,14.29,17.29,18.56,3.54,16.8s-5.15-10.86-17.83-13.09C111.77,116.36,120.94,87.84,120.94,87.84Z"/><path class="cls-1" d="M117.59,119s3.82,18.88,4.09,27.45,7.56,4.07,12.38,9.8,0,6.24,0,6.24A45.22,45.22,0,0,0,114.42,152c-11.82-2.76-16.26-.75-23.76-9.34s-4.84-.75,3.15-6.68,14-32.91,14-32.91Z"/><path class="cls-2" d="M86.17,70.87s-7.88-35.87,7-52.09,30.74,59.16,27.77,69.06,1.23,26.54-6.72,21.66S86.17,70.87,86.17,70.87Z"/><path class="cls-2" d="M86.17,76.56c-9.47.58-20.44,4-25.27,8.2-11.29,9.76-39.09,29.1-38.9,48.52.18,17.85,42.52,16.26,60.67,9s32.24-18.76,29.49-22.58,3.6-5.68-4.4-16.62S96.51,75.93,86.17,76.56Z"/><path class="cls-1" d="M113.92,55.15c.74,4.36,1.31,8.76,2.27,13.06.63,2.77,2.18,5.34,2.69,8.12.6,3.26.46,6.66.78,10,0,.55.84,1,1.28,1.53,2.86-3.13,3.93.49,5.48,1.58,5.93,4.16,11.81,8.39,17.52,12.84,1.56,1.21,1.43,5.22,1.77,8.12-4.17-7-8.27-10.36-13.11-14.06.71,4.39,7.7,4.71,5,10.58l.06,0c-1.22-.18-3.69-3.71-3,1.14,0,.2-.34.61-.58.66-3.93.75-7.87,1.46-12.65,2.34,1.73,2.71,4.08,6.44,6.47,10.15,1.35,2.09,2.84,4.09,4.05,6.25.29.51-.09,2.38-.46,4.33l-1.17,1.07L117.59,119c3.78,9,6.29,17.86,4.09,27.45-.29,1.28-1.79,2.27-2.58,3.21-.5-2.37-1-4.68-1.48-7l-1.24.17c0,1.84,0,3.67,0,5.51a1.16,1.16,0,0,1-.55.64,31.2,31.2,0,0,1-3-1.75c-.93-.62-1.79-1.35-2.68-2a26.73,26.73,0,0,0,1.42,2.77c1.1,1.66,2.31,3.24,2.87,4-4.9-.24-10.06,0-15-.89-3.76-.65-8.33-.43-10.36-5.21-1.52-3.59-4.22-3-7.49-2-15.68,4.79-31.73,6.17-47.61,1.76-4.42-1.23-11.59-1.52-12.06-8.49-.34-5.11-.77-11.46,1.79-15.29,9.8-14.71,21-28.5,36.24-38.09,6-3.78,12.47-7.42,20.13-6.51,1.19.14,2.27,1.14,3.4,1.75-1.17.32-2.39,1.07-3.49.91C71,78.61,63.48,83,57.63,88.09c-11.05,9.55-20.7,20.73-30.85,31.31-.78.82-.67,2.42-1.33,3.43-1.4,2.15,1.92,5.77-2.3,7.21-.33.11-.17,4,.85,5.24,1.95,2.37,4.68,4.09,7.08,6.08.33-1,.7-2.05,1-3.09s.46-2.06.69-3.09a13.5,13.5,0,0,1,2.66,2.16c.86,1.16,1.11,2.82,2.09,3.81A23,23,0,0,0,41.82,144a37.6,37.6,0,0,1,.69-4.64,11.07,11.07,0,0,1,1.5-2.61c1,.69,2.35,1.16,2.81,2.1,1.25,2.53.47,7.11,5.58,5.4,4.43-1.48,2.18-4.87,1.8-7.64-.54-3.94-1.16-7.87-1.88-12.7,3.8,5.15,7,9.53,10.24,13.92l-.8.69-3.85-2.45c.14,3.29,5.56,8.08,8.18,7.15,1.15-.41,2.8-2.8,2.49-3.39A78.57,78.57,0,0,0,63,131.39c-.3-.43-1-.82-1-1.19.2-2.75.54-5.5.92-9,2.85,5,5.34,9.81,8.32,14.32,1.07,1.62,3.25,2.56,5.08,3.54a7,7,0,0,0,2-2.72,11.26,11.26,0,0,0,.13-3.45c6.1-2.08,1.77,6.1-.54,10.18l9.22-4.17c-1.34-1.59-2.69-3.18-4-4.8-.27-.33-.4-1.07-.63-1.08-1.33-.11-2.68-.06-4-.06C74.25,126.3,70,119.71,65.81,113c-.46-.75,0-2.07,0-3.13a14.65,14.65,0,0,1,2.14,2c3.39,4.9,6.4,10.11,10.17,14.69,2.53,3.05,6.09,5.26,9.29,7.72.18.14,1.83-1,1.76-1.26-.75-3.24-1.69-6.45-2.62-9.65a21.53,21.53,0,0,0-.9-2.25l1.59-.66L93.81,136c4-2.25,9-4.92,13.83-7.95,5.76-3.61,6.39-3.57,9.59,2.29a19,19,0,0,0,2.27,2.23c-1.25-4.08-1.81-6.7-2.85-9.11-2.11-4.9-4.35-9.75-6.79-14.49-.84-1.62-2.55-2.77-3.59-4.32-.52-.77-.41-2-.59-3a22.9,22.9,0,0,1,2.08,1.4,4.51,4.51,0,0,0,3.38,1.44l-6.27-9.24c.22,1.27.44,2.51.65,3.74l-.62.24c-2-3.57-3.87-7.21-6-10.67-.65-1-2.5-1.36-3.05-2.41s0-2.47,0-3.74l-.09,0c2,1.33,4.6,2.26,6,4.08,2.17,2.91,6.46,3.34,7.58,7.88.42,1.73,5.66,2.26,8.71,3.34.21-.88.89-2.2.54-2.58a62.24,62.24,0,0,0-6.19-6c-1.32-1.12-2.92-1.92-4.1-3.63l5.5.66c-3.2-2.62-6.9-5.6-10.54-8.66a38.6,38.6,0,0,1-3.93-3.85c-.28-.32-.06-1.1-.07-1.66a5.59,5.59,0,0,1,1.39.5c2.92,2.1,5.79,4.27,8.73,6.33a5.64,5.64,0,0,0,1.94.48c-.23-.65-.26-1.51-.71-1.91-3.49-3.13-7.12-6.11-10.57-9.28a11.25,11.25,0,0,1-1.73-3c1.23.43,2.74.54,3.63,1.34,4.67,4.18,9.18,8.53,13.74,12.82l1.93-.42c-1.23-3.39-2.46-6.78-3.74-10.14,0-.13-.88.12-1-.06-1.14-1.41-5.36-1.14-2.45-4.92.7-.92-.43-3.3-.86-5-.07-.29-1-.61-1.34-.49s-.44.82-.58,1.29c-.2.65-.32,1.31-.48,2a13.15,13.15,0,0,1-1.81-1.19c-2.84-2.51-5.74-5-8.41-7.65-.73-.73-.74-2.2-1.07-3.33a28.24,28.24,0,0,1,2.8,1.13c2.24,1.17,4.41,2.48,6.67,3.58.32.16,1.07-.48,1.54-.85.09-.07-.15-.58-.24-.89-.5.15-1.11.57-1.48.41-1.61-.66-3.15-1.48-4.71-2.25.55-.69,1.63-1.44,1.56-2.06a40.12,40.12,0,0,0-1.48-6.86c-.23-.78-1.14-1.35-1.3-2.57l3.8,1.78c-1.37-3.91-2.49-7-3.46-10a6.53,6.53,0,0,1,.24-2.36c.67.42,1.7.7,1.94,1.3,1.84,4.48,3.53,9,5.54,14.28l-3.3-2.32c3.48,6.72,6.38,12.3,9.38,18.11l.72-4.66ZM118.26,107c.35-.94,1.08-2,1.06-3.13a3.63,3.63,0,0,0-1.45-2.59c-.68-.45-1.87-.16-2.83-.19.58.87,1.23,1.7,1.72,2.61S117.74,105.79,118.26,107ZM102.6,149.23l.89-.78-5.34-6.76-1,.82Zm-26.93-6c-4-3.28-4.06-3.26-5.24.8Zm18.2-1.83a12.79,12.79,0,0,0-.85-1.61c-1.08.4-2.12.92-3.16,1.42.27.49.66,1.44.8,1.41A28.39,28.39,0,0,0,93.87,141.43Zm-33.21,3.49.18-.84c-1-.12-2-.25-3.06-.3a6.59,6.59,0,0,0-.23,1.09ZM118.54,139l1,0c0-.91,0-1.82-.13-2.73,0,0-.75,0-1.15,0Z"/><path class="cls-1" d="M99.45,120c1.26,1.61,1.87,2.35,2.44,3.13,1.68,2.33,3.07,4.94-.08,6.9-2.92,1.82-6.15,1.92-8.18-1.56-3-5.2-6-10.46-8.7-15.83-.63-1.25-.19-3-.24-4.6a29,29,0,0,1,2.32,3c2.86,5,5.54,10,8.51,14.93.75,1.22,2.34,1.93,3.54,2.88a34.29,34.29,0,0,0,.89-4.33A29.17,29.17,0,0,0,99.45,120Z"/><path class="cls-1" d="M93.17,18.78c-2.68,6.49-6.35,12.66-7.65,19.29S85.25,52,85.21,59c0,2.25-.22,4.5-.33,6.75-.67-1.91-1.7-3.77-2-5.74C81.43,49.21,81,38.44,86.22,28.44,88.06,24.88,90.92,21.84,93.17,18.78Z"/><path class="cls-1" d="M39.37,117c-3.12-.94-5,.58-4.33,5.32l-3.68-2.62c0,1,0,1.78,0,3.22-.89-.93-1.92-1.52-1.87-2,.13-1.56.28-4.11,1.13-4.43,2.55-1,5.85-.66,4.7-5-.07-.25.85-.76,1.31-1.15a14.68,14.68,0,0,1,.8,1.52C38.08,113.49,38.7,115.21,39.37,117Z"/><path class="cls-1" d="M95.84,56.09c-1.65.21-3.12.77-3.46.37-2.23-2.6-5.65-4.8-4-9.14a2.76,2.76,0,0,0,0-1.34c-.18-1.09-.41-2.16-.61-3.23.47.07,1.17,0,1.37.25.85,1.18,2.29,2.55,2.18,3.72-.47,4.77-.62,4.64,3.43,5.67C95.28,52.53,95.38,54.44,95.84,56.09Z"/><path class="cls-1" d="M97.19,57.81c3.58,2.67,6.38,4.72,9.11,6.87.45.35.53,1.17.78,1.77-.6.09-1.35.45-1.76.22-3.62-2.12-7.21-4.29-10.7-6.61-.39-.26-.08-1.57-.1-2.39Z"/><path class="cls-1" d="M82.53,70c-2.5-6-6.07-14-9.31-21.34-1.7-3.89-3.32-7.6-4.64-10.75l1-.44c1.37,3.09,3,6.78,4.65,10.66,3.2,7.39,6.66,15.46,9.27,21.37Z"/><path class="cls-1" d="M45.92,107.69c-1.4-1-3.15-1.9-3.05-2.32a12.86,12.86,0,0,1,2.32-5.31c.68-.79,2.57-.6,3.93-.7.12,0,.64,1.41.45,1.58-1.29,1.15-2.84,2-4,3.25C45.18,104.57,45.68,105.79,45.92,107.69Z"/><path class="cls-1" d="M94.11,81.31c-1.24,3.87-3.38,1.79-4.75.4s-2.15-3.41-3.19-5.15c1.69,1.12,3.35,2.28,5.07,3.35.92.57,1.93,1,2.89,1.48Z"/><path class="cls-1" d="M95.52,70.27c-.4.07-1,.3-1.11.18-1.52-2.37-3-4.77-4.41-7.2-.1-.16.32-.71.6-.94.12-.09.66.11.79.31,1.36,2.16,2.69,4.33,4,6.53A3.44,3.44,0,0,1,95.52,70.27Z"/><path class="cls-1" d="M94.13,81.39c.87-.74,1.68-2,2.6-2.08,1.11-.1,2.33.75,3.45,1.29.19.09.13.7.18,1.07a26.9,26.9,0,0,0-3,.06,6.58,6.58,0,0,0-1.65.71l.09,0-1.71-1.11Z"/><path class="cls-1" d="M76.47,68.2,81,74.26c.43-.33-2-4.85-3.64-6.78l-8.41-6c-1.1-1.06-8.37-9.17-9.46-10.22l-1,1.07c1.15,1,8.45,9,9.63,9.9Z"/><path class="cls-1" d="M59.54,99.45c-1.35-.52-3.39-.76-3.58-1.49-.36-1.4.32-3.07.67-5.24C57.74,95.3,58.49,97,59.54,99.45Z"/><path class="cls-1" d="M108.82,122.15q-1-3.59-2.06-7.17l1.1-.35q1.14,3.56,2.26,7.11Z"/><path class="cls-1" d="M26.92,131.83c.35-1.37.71-2.74,1.06-4.11.47.64,1.36,1.33,1.3,1.91-.09.82-.89,1.57-1.38,2.34Z"/><path class="cls-1" d="M76.78,111.64l3.33,5.79-1.2.67-3.23-5.83Z"/><path class="cls-1" d="M65.62,92.4l3.91-3.61,1,1-3.76,3.83Z"/><path class="cls-1" d="M137.6,106.9l5.58.27-.5,2-5-2.27Z"/><path class="cls-1" d="M91.86,98.32c-1.3-.36-2.6-.72-3.88-1.14A10.68,10.68,0,0,1,88.32,96c1.32.29,2.62.64,3.93,1Z"/><path class="cls-1" d="M94.11,46.08c.13,1.22.3,2.44.33,3.66,0,.11-.9.23-1.38.35-.14-1.26-.27-2.52-.41-3.78Z"/><path class="cls-1" d="M63.82,93.3,62.68,97c-.31-.2-.91-.46-.88-.61.19-1.15.5-2.28.77-3.42Z"/><path class="cls-1" d="M90.43,57.11c.35,1.14.71,2.27,1.07,3.41l-1,.33L89.35,57.5Z"/><path class="cls-1" d="M114,55.13l-2.22-4.55,1.79-.54.36,5.11Z"/><path class="cls-1" d="M82.38,92.84l-1.67-2,.74-.62c.55.67,1.1,1.34,1.66,2Z"/><polygon class="cls-3" points="108.22 135.71 65.9 90.53 97.37 63.09 138.5 106.91 108.22 135.71"/><path class="cls-2" d="M104.33,122.29,78.8,95a5,5,0,0,1,.37-7.2l15.7-13.3a5,5,0,0,1,6.94.35l24.9,26.52a5,5,0,0,1-.2,7.06l-15.08,14A5,5,0,0,1,104.33,122.29Z"/><path class="cls-4" d="M86.22,91.54s10.15-16.4,16.14-7.87-12.94,11.82-5.21,19.55c6.16,6.16,12.62-9,18.89-4.13S108.76,114,108.76,114"/></svg>